<mxfile host="app.diagrams.net" modified="2020-07-24T04:03:02.558Z" agent="5.0 (Windows NT 10.0; Win64; x64) AppleWebKit/537.36 (KHTML, like Gecko) Chrome/84.0.4147.89 Safari/537.36" etag="4mFoEUoTKpKA6vuXYSWn" version="13.5.1" type="github">
  <diagram id="kgpKYQtTHZ0yAKxKKP6v" name="Page-1">
    <mxGraphModel dx="1662" dy="794" grid="1" gridSize="10" guides="1" tooltips="1" connect="1" arrows="1" fold="1" page="1" pageScale="1" pageWidth="850" pageHeight="1100" math="0" shadow="0">
      <root>
        <mxCell id="0" />
        <mxCell id="1" parent="0" />
        <mxCell id="3nuBFxr9cyL0pnOWT2aG-1" value="dispatcherServlet" style="shape=umlLifeline;perimeter=lifelinePerimeter;container=1;collapsible=0;recursiveResize=0;rounded=0;shadow=0;strokeWidth=1;" parent="1" vertex="1">
          <mxGeometry x="120" y="80" width="100" height="480" as="geometry" />
        </mxCell>
        <mxCell id="3nuBFxr9cyL0pnOWT2aG-2" value="" style="points=[];perimeter=orthogonalPerimeter;rounded=0;shadow=0;strokeWidth=1;" parent="3nuBFxr9cyL0pnOWT2aG-1" vertex="1">
          <mxGeometry x="45" y="70" width="10" height="410" as="geometry" />
        </mxCell>
        <mxCell id="3nuBFxr9cyL0pnOWT2aG-3" value="user/userJoin" style="verticalAlign=bottom;startArrow=oval;endArrow=block;startSize=8;shadow=0;strokeWidth=1;" parent="3nuBFxr9cyL0pnOWT2aG-1" target="3nuBFxr9cyL0pnOWT2aG-2" edge="1">
          <mxGeometry relative="1" as="geometry">
            <mxPoint x="-80" y="80" as="sourcePoint" />
            <Array as="points">
              <mxPoint x="-30" y="80" />
            </Array>
          </mxGeometry>
        </mxCell>
        <mxCell id="3nuBFxr9cyL0pnOWT2aG-5" value="&lt;controller&gt;&#xa;UserController" style="shape=umlLifeline;perimeter=lifelinePerimeter;container=1;collapsible=0;recursiveResize=0;rounded=0;shadow=0;strokeWidth=1;" parent="1" vertex="1">
          <mxGeometry x="300" y="80" width="100" height="480" as="geometry" />
        </mxCell>
        <mxCell id="3nuBFxr9cyL0pnOWT2aG-6" value="" style="points=[];perimeter=orthogonalPerimeter;rounded=0;shadow=0;strokeWidth=1;" parent="3nuBFxr9cyL0pnOWT2aG-5" vertex="1">
          <mxGeometry x="45" y="80" width="10" height="400" as="geometry" />
        </mxCell>
        <mxCell id="3nuBFxr9cyL0pnOWT2aG-8" value="idCheck()" style="verticalAlign=bottom;endArrow=block;entryX=0;entryY=0;shadow=0;strokeWidth=1;" parent="1" source="3nuBFxr9cyL0pnOWT2aG-2" target="3nuBFxr9cyL0pnOWT2aG-6" edge="1">
          <mxGeometry relative="1" as="geometry">
            <mxPoint x="275" y="160" as="sourcePoint" />
          </mxGeometry>
        </mxCell>
        <mxCell id="L1rHS6J2pZa87WszS5Ch-1" value="" style="endArrow=none;dashed=1;html=1;" parent="1" edge="1">
          <mxGeometry width="50" height="50" relative="1" as="geometry">
            <mxPoint x="40" y="560" as="sourcePoint" />
            <mxPoint x="40" y="120" as="targetPoint" />
          </mxGeometry>
        </mxCell>
        <mxCell id="L1rHS6J2pZa87WszS5Ch-2" value="USER(김영훈)" style="shape=umlActor;verticalLabelPosition=bottom;verticalAlign=top;html=1;outlineConnect=0;" parent="1" vertex="1">
          <mxGeometry x="25" y="42" width="30" height="60" as="geometry" />
        </mxCell>
        <mxCell id="L1rHS6J2pZa87WszS5Ch-3" value="joinForm(UserVO)" style="verticalAlign=bottom;endArrow=block;shadow=0;strokeWidth=1;" parent="1" edge="1">
          <mxGeometry relative="1" as="geometry">
            <mxPoint x="176" y="315.0000000000007" as="sourcePoint" />
            <mxPoint x="347" y="315" as="targetPoint" />
          </mxGeometry>
        </mxCell>
        <mxCell id="L1rHS6J2pZa87WszS5Ch-4" value="&lt;font style=&quot;font-size: 9px&quot;&gt;아이디중복확인&lt;/font&gt;" style="rounded=1;whiteSpace=wrap;html=1;fontSize=8;" parent="1" vertex="1">
          <mxGeometry x="220" y="160" width="80" height="20" as="geometry" />
        </mxCell>
        <mxCell id="L1rHS6J2pZa87WszS5Ch-6" value="return" style="verticalAlign=bottom;endArrow=open;dashed=1;endSize=8;exitX=0;exitY=0.95;shadow=0;strokeWidth=1;" parent="1" edge="1">
          <mxGeometry relative="1" as="geometry">
            <mxPoint x="175" y="259.9999999999993" as="targetPoint" />
            <mxPoint x="345" y="259.9999999999993" as="sourcePoint" />
          </mxGeometry>
        </mxCell>
        <mxCell id="L1rHS6J2pZa87WszS5Ch-7" value="&lt;font style=&quot;font-size: 9px&quot;&gt;아이디중복여부&lt;/font&gt;" style="rounded=1;whiteSpace=wrap;html=1;fontSize=8;" parent="1" vertex="1">
          <mxGeometry x="220" y="260" width="80" height="20" as="geometry" />
        </mxCell>
        <mxCell id="L1rHS6J2pZa87WszS5Ch-11" value="&lt;service&gt;&#xa;UserService" style="shape=umlLifeline;perimeter=lifelinePerimeter;container=1;collapsible=0;recursiveResize=0;rounded=0;shadow=0;strokeWidth=1;" parent="1" vertex="1">
          <mxGeometry x="490" y="80" width="100" height="480" as="geometry" />
        </mxCell>
        <mxCell id="L1rHS6J2pZa87WszS5Ch-12" value="" style="points=[];perimeter=orthogonalPerimeter;rounded=0;shadow=0;strokeWidth=1;" parent="L1rHS6J2pZa87WszS5Ch-11" vertex="1">
          <mxGeometry x="45" y="75" width="10" height="405" as="geometry" />
        </mxCell>
        <mxCell id="L1rHS6J2pZa87WszS5Ch-13" value="idCheck()" style="verticalAlign=bottom;endArrow=block;shadow=0;strokeWidth=1;" parent="1" edge="1">
          <mxGeometry relative="1" as="geometry">
            <mxPoint x="355" y="180.0000000000008" as="sourcePoint" />
            <mxPoint x="540" y="180" as="targetPoint" />
          </mxGeometry>
        </mxCell>
        <mxCell id="L1rHS6J2pZa87WszS5Ch-15" value="&lt;mybatis&gt;&#xa;UserMapper" style="shape=umlLifeline;perimeter=lifelinePerimeter;container=1;collapsible=0;recursiveResize=0;rounded=0;shadow=0;strokeWidth=1;" parent="1" vertex="1">
          <mxGeometry x="676" y="80" width="100" height="480" as="geometry" />
        </mxCell>
        <mxCell id="L1rHS6J2pZa87WszS5Ch-16" value="" style="points=[];perimeter=orthogonalPerimeter;rounded=0;shadow=0;strokeWidth=1;" parent="L1rHS6J2pZa87WszS5Ch-15" vertex="1">
          <mxGeometry x="45" y="80" width="10" height="400" as="geometry" />
        </mxCell>
        <mxCell id="L1rHS6J2pZa87WszS5Ch-17" value="idCheck()" style="verticalAlign=bottom;endArrow=block;entryX=0;entryY=0;shadow=0;strokeWidth=1;" parent="1" edge="1">
          <mxGeometry relative="1" as="geometry">
            <mxPoint x="551" y="190.0000000000008" as="sourcePoint" />
            <mxPoint x="721" y="190.0000000000008" as="targetPoint" />
          </mxGeometry>
        </mxCell>
        <mxCell id="L1rHS6J2pZa87WszS5Ch-19" value="&lt;DataBase&gt;&#xa;users" style="shape=umlLifeline;perimeter=lifelinePerimeter;container=1;collapsible=0;recursiveResize=0;rounded=0;shadow=0;strokeWidth=1;" parent="1" vertex="1">
          <mxGeometry x="857" y="80" width="100" height="480" as="geometry" />
        </mxCell>
        <mxCell id="L1rHS6J2pZa87WszS5Ch-20" value="" style="points=[];perimeter=orthogonalPerimeter;rounded=0;shadow=0;strokeWidth=1;" parent="L1rHS6J2pZa87WszS5Ch-19" vertex="1">
          <mxGeometry x="45" y="80" width="10" height="400" as="geometry" />
        </mxCell>
        <mxCell id="L1rHS6J2pZa87WszS5Ch-21" value="idCheck()" style="verticalAlign=bottom;endArrow=block;entryX=0;entryY=0;shadow=0;strokeWidth=1;" parent="1" edge="1">
          <mxGeometry relative="1" as="geometry">
            <mxPoint x="732" y="201.0000000000008" as="sourcePoint" />
            <mxPoint x="902" y="201.0000000000008" as="targetPoint" />
          </mxGeometry>
        </mxCell>
        <mxCell id="L1rHS6J2pZa87WszS5Ch-23" value="중복여부(int) reutrn" style="verticalAlign=bottom;endArrow=open;dashed=1;endSize=8;exitX=0;exitY=0.95;shadow=0;strokeWidth=1;" parent="1" edge="1">
          <mxGeometry relative="1" as="geometry">
            <mxPoint x="731" y="221.9999999999992" as="targetPoint" />
            <mxPoint x="901" y="221.9999999999992" as="sourcePoint" />
          </mxGeometry>
        </mxCell>
        <mxCell id="L1rHS6J2pZa87WszS5Ch-24" value="중복여부(int) reutrn" style="verticalAlign=bottom;endArrow=open;dashed=1;endSize=8;exitX=0;exitY=0.95;shadow=0;strokeWidth=1;" parent="1" target="L1rHS6J2pZa87WszS5Ch-12" edge="1">
          <mxGeometry relative="1" as="geometry">
            <mxPoint x="549.9999999999998" y="231.9999999999992" as="targetPoint" />
            <mxPoint x="720" y="231.9999999999992" as="sourcePoint" />
          </mxGeometry>
        </mxCell>
        <mxCell id="L1rHS6J2pZa87WszS5Ch-25" value="중복여부(int) reutrn" style="verticalAlign=bottom;endArrow=open;dashed=1;endSize=8;shadow=0;strokeWidth=1;" parent="1" source="L1rHS6J2pZa87WszS5Ch-12" edge="1">
          <mxGeometry relative="1" as="geometry">
            <mxPoint x="353.9999999999998" y="243.9999999999992" as="targetPoint" />
            <mxPoint x="524" y="243.9999999999992" as="sourcePoint" />
          </mxGeometry>
        </mxCell>
        <mxCell id="L1rHS6J2pZa87WszS5Ch-28" value="&lt;font style=&quot;font-size: 9px&quot;&gt;아이디중복확인&lt;/font&gt;" style="rounded=1;whiteSpace=wrap;html=1;fontSize=8;" parent="1" vertex="1">
          <mxGeometry x="220" y="315" width="80" height="20" as="geometry" />
        </mxCell>
        <mxCell id="L1rHS6J2pZa87WszS5Ch-29" value="userJoin(UserVO)" style="verticalAlign=bottom;endArrow=block;shadow=0;strokeWidth=1;" parent="1" edge="1">
          <mxGeometry relative="1" as="geometry">
            <mxPoint x="357" y="322" as="sourcePoint" />
            <mxPoint x="536.5" y="322" as="targetPoint" />
          </mxGeometry>
        </mxCell>
        <mxCell id="L1rHS6J2pZa87WszS5Ch-30" value="userJoin(UserVO)" style="verticalAlign=bottom;endArrow=block;shadow=0;strokeWidth=1;" parent="1" edge="1">
          <mxGeometry relative="1" as="geometry">
            <mxPoint x="544" y="331" as="sourcePoint" />
            <mxPoint x="723.5" y="331" as="targetPoint" />
          </mxGeometry>
        </mxCell>
        <mxCell id="L1rHS6J2pZa87WszS5Ch-31" value="userJoin(UserVO)" style="verticalAlign=bottom;endArrow=block;shadow=0;strokeWidth=1;" parent="1" edge="1">
          <mxGeometry relative="1" as="geometry">
            <mxPoint x="733" y="338" as="sourcePoint" />
            <mxPoint x="903" y="338" as="targetPoint" />
          </mxGeometry>
        </mxCell>
        <mxCell id="L1rHS6J2pZa87WszS5Ch-32" value="저장여부(int) return" style="verticalAlign=bottom;endArrow=open;dashed=1;endSize=8;exitX=0;exitY=0.95;shadow=0;strokeWidth=1;" parent="1" edge="1">
          <mxGeometry relative="1" as="geometry">
            <mxPoint x="730" y="369.9999999999992" as="targetPoint" />
            <mxPoint x="900" y="369.9999999999992" as="sourcePoint" />
          </mxGeometry>
        </mxCell>
        <mxCell id="L1rHS6J2pZa87WszS5Ch-33" value="저장여부(int) return" style="verticalAlign=bottom;endArrow=open;dashed=1;endSize=8;exitX=0;exitY=0.95;shadow=0;strokeWidth=1;" parent="1" edge="1">
          <mxGeometry relative="1" as="geometry">
            <mxPoint x="547" y="379.9999999999991" as="targetPoint" />
            <mxPoint x="717" y="379.9999999999991" as="sourcePoint" />
          </mxGeometry>
        </mxCell>
        <mxCell id="L1rHS6J2pZa87WszS5Ch-34" value="저장여부(int) return" style="verticalAlign=bottom;endArrow=open;dashed=1;endSize=8;exitX=0;exitY=0.95;shadow=0;strokeWidth=1;" parent="1" edge="1">
          <mxGeometry relative="1" as="geometry">
            <mxPoint x="360" y="389.9999999999991" as="targetPoint" />
            <mxPoint x="530" y="389.9999999999991" as="sourcePoint" />
          </mxGeometry>
        </mxCell>
        <mxCell id="L1rHS6J2pZa87WszS5Ch-35" value="확인후 redirect로 다음화면" style="verticalAlign=bottom;endArrow=open;dashed=1;endSize=8;exitX=0;exitY=0.95;shadow=0;strokeWidth=1;" parent="1" edge="1">
          <mxGeometry relative="1" as="geometry">
            <mxPoint x="170" y="400" as="targetPoint" />
            <mxPoint x="345" y="399.9999999999991" as="sourcePoint" />
          </mxGeometry>
        </mxCell>
        <mxCell id="L1rHS6J2pZa87WszS5Ch-37" value="user/userLogin" style="verticalAlign=bottom;startArrow=oval;endArrow=block;startSize=8;shadow=0;strokeWidth=1;" parent="1" edge="1">
          <mxGeometry relative="1" as="geometry">
            <mxPoint x="40" y="417" as="sourcePoint" />
            <mxPoint x="165" y="417" as="targetPoint" />
            <Array as="points">
              <mxPoint x="90" y="417" />
            </Array>
          </mxGeometry>
        </mxCell>
        <mxCell id="L1rHS6J2pZa87WszS5Ch-38" value="loginForm(UserVO)" style="verticalAlign=bottom;endArrow=block;entryX=0;entryY=0;shadow=0;strokeWidth=1;" parent="1" edge="1">
          <mxGeometry relative="1" as="geometry">
            <mxPoint x="175" y="430.0000000000008" as="sourcePoint" />
            <mxPoint x="345" y="430.0000000000008" as="targetPoint" />
          </mxGeometry>
        </mxCell>
        <mxCell id="L1rHS6J2pZa87WszS5Ch-39" value="&lt;font style=&quot;font-size: 9px&quot;&gt;아이디중복확인&lt;/font&gt;" style="rounded=1;whiteSpace=wrap;html=1;fontSize=8;" parent="1" vertex="1">
          <mxGeometry x="220" y="430" width="80" height="20" as="geometry" />
        </mxCell>
        <mxCell id="L1rHS6J2pZa87WszS5Ch-40" value="userLogin(UserVO)" style="verticalAlign=bottom;endArrow=block;shadow=0;strokeWidth=1;" parent="1" edge="1">
          <mxGeometry relative="1" as="geometry">
            <mxPoint x="360" y="439.5" as="sourcePoint" />
            <mxPoint x="539.5" y="439.5" as="targetPoint" />
          </mxGeometry>
        </mxCell>
        <mxCell id="L1rHS6J2pZa87WszS5Ch-41" value="userLogin(UserVO)" style="verticalAlign=bottom;endArrow=block;shadow=0;strokeWidth=1;" parent="1" edge="1">
          <mxGeometry relative="1" as="geometry">
            <mxPoint x="540" y="450" as="sourcePoint" />
            <mxPoint x="719.5" y="450" as="targetPoint" />
          </mxGeometry>
        </mxCell>
        <mxCell id="L1rHS6J2pZa87WszS5Ch-42" value="userLogin(UserVO)" style="verticalAlign=bottom;endArrow=block;shadow=0;strokeWidth=1;" parent="1" edge="1">
          <mxGeometry relative="1" as="geometry">
            <mxPoint x="730" y="460" as="sourcePoint" />
            <mxPoint x="909.5" y="460" as="targetPoint" />
          </mxGeometry>
        </mxCell>
        <mxCell id="L1rHS6J2pZa87WszS5Ch-43" value="확인여부(int) return" style="verticalAlign=bottom;endArrow=open;dashed=1;endSize=8;exitX=0;exitY=0.95;shadow=0;strokeWidth=1;" parent="1" edge="1">
          <mxGeometry relative="1" as="geometry">
            <mxPoint x="730" y="489.9999999999991" as="targetPoint" />
            <mxPoint x="900" y="489.9999999999991" as="sourcePoint" />
          </mxGeometry>
        </mxCell>
        <mxCell id="L1rHS6J2pZa87WszS5Ch-44" value="확인여부(int) return" style="verticalAlign=bottom;endArrow=open;dashed=1;endSize=8;exitX=0;exitY=0.95;shadow=0;strokeWidth=1;" parent="1" target="L1rHS6J2pZa87WszS5Ch-12" edge="1">
          <mxGeometry relative="1" as="geometry">
            <mxPoint x="550" y="499.9999999999991" as="targetPoint" />
            <mxPoint x="720" y="499.9999999999991" as="sourcePoint" />
          </mxGeometry>
        </mxCell>
        <mxCell id="L1rHS6J2pZa87WszS5Ch-45" value="확인여부(int) return" style="verticalAlign=bottom;endArrow=open;dashed=1;endSize=8;exitX=0;exitY=0.95;shadow=0;strokeWidth=1;" parent="1" edge="1">
          <mxGeometry relative="1" as="geometry">
            <mxPoint x="360" y="509.9999999999991" as="targetPoint" />
            <mxPoint x="530" y="509.9999999999991" as="sourcePoint" />
          </mxGeometry>
        </mxCell>
        <mxCell id="L1rHS6J2pZa87WszS5Ch-46" value="확인후 redirect로 다음화면" style="verticalAlign=bottom;endArrow=open;dashed=1;endSize=8;exitX=0;exitY=0.95;shadow=0;strokeWidth=1;" parent="1" edge="1">
          <mxGeometry relative="1" as="geometry">
            <mxPoint x="172.5" y="520" as="targetPoint" />
            <mxPoint x="347.5" y="519.9999999999991" as="sourcePoint" />
          </mxGeometry>
        </mxCell>
        <mxCell id="L1rHS6J2pZa87WszS5Ch-47" value="user/mypage" style="verticalAlign=bottom;startArrow=oval;endArrow=block;startSize=8;shadow=0;strokeWidth=1;" parent="1" edge="1">
          <mxGeometry relative="1" as="geometry">
            <mxPoint x="40" y="540" as="sourcePoint" />
            <mxPoint x="165" y="540" as="targetPoint" />
            <Array as="points">
              <mxPoint x="90" y="540" />
            </Array>
          </mxGeometry>
        </mxCell>
      </root>
    </mxGraphModel>
  </diagram>
</mxfile>
